# Blender v3.2.2 OBJ File: ''
# www.blender.org
mtllib leaf.mtl
o Cube
v 0.310743 1.343726 -0.919799
v -0.001931 -1.772807 0.681081
v -0.314490 1.309888 -0.902418
v -1.226680 -0.286374 -0.082460
v -0.000000 1.146216 -0.747588
v 1.295766 -0.286374 -0.082460
v -0.000000 1.088701 -0.859556
v -0.000000 1.117459 -0.803572
v -0.000000 -0.208848 0.068466
v -0.000000 -0.371936 -0.249029
v -1.008095 -1.101210 0.336100
v 1.008095 -1.101210 0.336100
v -1.008095 0.583207 -0.529141
v 1.013175 0.583207 -0.529141
v -0.000000 1.131838 -0.775580
v -0.000000 1.103080 -0.831564
v -0.000000 -1.012516 0.508766
v -0.000000 0.642417 -0.413872
v -0.504048 -0.208848 0.068466
v 0.504048 -0.208848 0.068466
v -0.000000 -1.167484 0.207081
v -0.000000 0.512370 -0.667043
v 0.504048 -0.362159 -0.229996
v -0.504048 -0.362159 -0.229996
v -0.504048 0.512370 -0.667043
v 0.504048 0.512370 -0.667043
v 0.504048 -1.167484 0.207081
v 0.504048 0.642417 -0.413872
v -0.504048 0.642417 -0.413872
v -0.504048 -1.012516 0.508766
v 0.504048 -1.012516 0.508766
v -0.504048 -1.167484 0.207081
v 0.574256 -1.437009 0.508590
v -0.716254 0.946548 -0.715779
v -0.252989 -1.470145 0.444081
v 0.251058 -1.392661 0.594923
v -0.000000 0.216785 -0.172703
v -0.865364 -0.247611 -0.006997
v 0.252024 -0.208848 0.068466
v -0.252989 -1.392661 0.594923
v -0.000000 0.070217 -0.458036
v 0.899907 -0.324267 -0.156228
v -0.252024 -0.367048 -0.239512
v -1.164240 -0.693792 0.126820
v 1.204414 -0.693792 0.126820
v 0.251058 -1.470145 0.444081
v -0.000000 -0.610682 0.288616
v -0.000000 0.894317 -0.580730
v -0.252024 -0.208848 0.068466
v -0.865364 -0.324267 -0.156228
v -0.000000 -0.769710 -0.020974
v -0.000000 0.800536 -0.763299
v 0.252024 -0.367048 -0.239512
v -0.000966 -1.470145 0.444081
v -0.504048 0.075105 -0.448519
v -0.252024 0.512370 -0.667043
v -0.756072 0.547789 -0.598092
v 0.504048 0.075105 -0.448519
v 0.252024 0.512370 -0.667043
v 0.504048 -0.764822 -0.011458
v 0.756072 -1.134347 0.271590
v 0.252024 -1.167484 0.207081
v -0.000966 -1.392661 0.594923
v -0.756072 0.612812 -0.471507
v -0.587947 -1.437009 0.508590
v 0.504048 0.216785 -0.172703
v 0.252024 0.642417 -0.413872
v 0.756072 0.612812 -0.471507
v -0.504048 0.216785 -0.172703
v -0.252024 0.642417 -0.413872
v -0.504048 -0.610682 0.288616
v -0.756072 -1.056863 0.422433
v -0.252024 -1.012516 0.508766
v -1.162516 0.148416 -0.305801
v -0.375093 0.976153 -0.658145
v -0.375093 0.911129 -0.784730
v -0.123069 1.228052 -0.825003
v 0.394630 0.993072 -0.666836
v 0.394630 0.928048 -0.793421
v 0.142606 1.216214 -0.889678
v 0.504048 -0.610682 0.288616
v 0.252024 -1.012516 0.508766
v 0.756072 0.547789 -0.598092
v 0.687568 0.963466 -0.724470
v -0.504048 -0.764822 -0.011458
v -0.252024 -1.167484 0.207081
v 0.142606 1.244971 -0.833694
v 1.208053 0.148416 -0.305801
v 0.899907 -0.247611 -0.006997
v -0.123069 1.199295 -0.880987
v -0.756072 -1.134347 0.271590
v 0.756072 -1.056863 0.422433
v -0.810718 -0.729307 0.057681
v -0.252024 -0.767266 -0.016216
v 0.827989 -0.652237 0.207718
v 0.252024 -0.610682 0.288616
v -0.252024 -0.610682 0.288616
v -0.810718 -0.652237 0.207718
v -0.187546 0.935235 -0.619438
v -0.810718 0.182601 -0.239252
v 0.197315 0.943694 -0.623783
v 0.252024 0.216785 -0.172703
v 0.252024 -0.767266 -0.016216
v 0.827989 -0.729307 0.057681
v 0.197315 0.864292 -0.778360
v 0.827989 0.111761 -0.377160
v -0.187546 0.855833 -0.774015
v -0.252024 0.072661 -0.453278
v -0.810718 0.111761 -0.377160
v 0.252024 0.072661 -0.453278
v 0.827989 0.182601 -0.239252
v -0.252024 0.216785 -0.172703
vt 0.812500 0.687500
vt 0.812500 0.718750
vt 0.843750 0.687500
vt 0.312500 0.687500
vt 0.312500 0.718750
vt 0.343750 0.687500
vt 0.500000 0.312500
vt 0.437500 0.375000
vt 0.500000 0.375000
vt 0.625000 0.312500
vt 0.562500 0.375000
vt 0.625000 0.375000
vt 0.625000 0.343750
vt 0.187500 0.687500
vt 0.187500 0.718750
vt 0.218750 0.687500
vt 0.218750 0.593750
vt 0.218750 0.625000
vt 0.250000 0.625000
vt 0.250000 0.593750
vt 0.343750 0.593750
vt 0.343750 0.625000
vt 0.375000 0.625000
vt 0.375000 0.593750
vt 0.687500 0.687500
vt 0.687500 0.718750
vt 0.718750 0.687500
vt 0.718750 0.593750
vt 0.718750 0.625000
vt 0.750000 0.625000
vt 0.750000 0.593750
vt 0.843750 0.593750
vt 0.843750 0.625000
vt 0.875000 0.625000
vt 0.875000 0.593750
vt 0.781250 0.593750
vt 0.781250 0.625000
vt 0.812500 0.625000
vt 0.812500 0.593750
vt 0.781250 0.531250
vt 0.781250 0.562500
vt 0.812500 0.562500
vt 0.812500 0.531250
vt 0.875000 0.500000
vt 0.843750 0.531250
vt 0.875000 0.531250
vt 0.656250 0.593750
vt 0.656250 0.625000
vt 0.687500 0.625000
vt 0.687500 0.593750
vt 0.687500 0.500000
vt 0.656250 0.531250
vt 0.687500 0.531250
vt 0.718750 0.531250
vt 0.718750 0.562500
vt 0.750000 0.562500
vt 0.750000 0.531250
vt 0.625000 0.687500
vt 0.625000 0.718750
vt 0.656250 0.687500
vt 0.656250 0.656250
vt 0.687500 0.656250
vt 0.718750 0.656250
vt 0.750000 0.687500
vt 0.750000 0.656250
vt 0.281250 0.593750
vt 0.281250 0.625000
vt 0.312500 0.625000
vt 0.312500 0.593750
vt 0.281250 0.531250
vt 0.281250 0.562500
vt 0.312500 0.562500
vt 0.312500 0.531250
vt 0.375000 0.500000
vt 0.343750 0.531250
vt 0.375000 0.531250
vt 0.156250 0.593750
vt 0.156250 0.625000
vt 0.187500 0.625000
vt 0.187500 0.593750
vt 0.187500 0.500000
vt 0.156250 0.531250
vt 0.187500 0.531250
vt 0.218750 0.531250
vt 0.218750 0.562500
vt 0.250000 0.562500
vt 0.250000 0.531250
vt 0.125000 0.687500
vt 0.125000 0.718750
vt 0.156250 0.687500
vt 0.156250 0.656250
vt 0.187500 0.656250
vt 0.218750 0.656250
vt 0.250000 0.687500
vt 0.250000 0.656250
vt 0.562500 0.312500
vt 0.437500 0.312500
vt 0.406250 0.343750
vt 0.375000 0.375000
vt 0.375000 0.406250
vt 0.375000 0.437500
vt 0.437500 0.437500
vt 0.500000 0.437500
vt 0.562500 0.437500
vt 0.593750 0.406250
vt 0.250000 0.718750
vt 0.281250 0.687500
vt 0.281250 0.656250
vt 0.312500 0.656250
vt 0.343750 0.656250
vt 0.375000 0.687500
vt 0.375000 0.656250
vt 0.750000 0.718750
vt 0.781250 0.687500
vt 0.781250 0.656250
vt 0.812500 0.656250
vt 0.843750 0.656250
vt 0.875000 0.687500
vt 0.875000 0.656250
vt 0.750000 0.750000
vt 0.781250 0.718750
vt 0.250000 0.750000
vt 0.281250 0.718750
vt 0.125000 0.656250
vt 0.125000 0.625000
vt 0.125000 0.750000
vt 0.156250 0.718750
vt 0.187500 0.562500
vt 0.218750 0.500000
vt 0.250000 0.500000
vt 0.125000 0.562500
vt 0.156250 0.562500
vt 0.125000 0.593750
vt 0.343750 0.562500
vt 0.375000 0.562500
vt 0.281250 0.500000
vt 0.312500 0.500000
vt 0.625000 0.656250
vt 0.625000 0.625000
vt 0.625000 0.750000
vt 0.656250 0.718750
vt 0.687500 0.562500
vt 0.718750 0.500000
vt 0.750000 0.500000
vt 0.625000 0.562500
vt 0.656250 0.562500
vt 0.625000 0.593750
vt 0.843750 0.562500
vt 0.875000 0.562500
vt 0.781250 0.500000
vt 0.812500 0.500000
vt 0.687500 0.750000
vt 0.718750 0.718750
vt 0.187500 0.750000
vt 0.218750 0.718750
vt 0.312500 0.750000
vt 0.343750 0.718750
vt 0.812500 0.750000
vt 0.843750 0.718750
vn -0.1581 -0.5907 -0.7912
vn -0.1051 -0.6622 -0.7420
vn -0.2541 -0.5904 -0.7661
vn 0.1920 0.2771 0.9415
vn 0.1379 0.1362 0.9810
vn 0.3149 0.2285 0.9212
vn -0.1800 0.8799 -0.4398
vn -0.0573 0.7168 -0.6949
vn -0.0417 0.8887 -0.4565
vn -0.0573 0.9824 -0.1779
vn -0.0472 0.1852 -0.9816
vn 0.4819 0.5145 -0.7092
vn -0.1942 0.2788 0.9405
vn -0.1344 0.1399 0.9810
vn 0.0000 0.3542 0.9352
vn 0.0000 0.4930 0.8700
vn 0.0000 0.4867 0.8735
vn 0.2165 0.4914 0.8436
vn 0.2186 0.4576 0.8619
vn 1.0000 0.0042 -0.0059
vn 0.9722 0.2109 -0.1015
vn 0.1563 -0.5921 -0.7905
vn 0.1081 -0.6642 -0.7397
vn 0.0053 -0.5535 -0.8328
vn 0.0212 -0.4371 -0.8992
vn 0.0318 -0.4622 -0.8862
vn 0.0000 -0.4626 -0.8866
vn 0.0000 -0.4323 -0.9017
vn -0.2460 -0.4131 -0.8768
vn -0.2279 -0.4477 -0.8647
vn -0.9999 0.0072 -0.0078
vn -0.9823 0.1696 -0.0796
vn -0.0212 -0.4371 -0.8992
vn -0.0318 -0.4622 -0.8862
vn -0.1343 -0.4575 -0.8790
vn -0.1388 -0.4350 -0.8897
vn -0.0333 -0.2936 -0.9553
vn -0.0122 -0.3670 -0.9301
vn -0.1587 -0.3354 -0.9286
vn -0.1236 -0.2646 -0.9564
vn -0.7447 0.6039 -0.2839
vn 0.2325 -0.4087 -0.8826
vn 0.2114 -0.4498 -0.8677
vn 0.1261 -0.4580 -0.8800
vn 0.1327 -0.4338 -0.8912
vn 0.1722 0.8809 -0.4409
vn 0.7655 0.5837 -0.2709
vn 0.1378 -0.2652 -0.9543
vn 0.0253 -0.2991 -0.9539
vn 0.0106 -0.3697 -0.9291
vn -0.0008 -0.3701 -0.9290
vn -0.0046 -0.3048 -0.9524
vn 0.8718 -0.4496 0.1944
vn 0.5969 -0.7363 0.3188
vn 0.2508 -0.5969 -0.7621
vn 0.2263 -0.4864 -0.8439
vn 0.1288 -0.4813 -0.8670
vn 0.0212 -0.4871 -0.8731
vn 0.0000 -0.5560 -0.8312
vn 0.0000 -0.4923 -0.8704
vn 0.1141 0.4793 0.8702
vn 0.1136 0.4927 0.8628
vn 0.0368 0.5743 0.8179
vn 0.0077 0.5338 0.8456
vn 0.1330 0.5500 0.8245
vn 0.1238 0.5966 0.7929
vn -0.2294 0.4848 0.8440
vn -0.2355 0.4567 0.8579
vn -0.1226 0.4789 0.8692
vn -0.1195 0.4909 0.8630
vn -0.1115 0.5982 0.7936
vn -0.0438 0.5780 0.8148
vn -0.0091 0.5359 0.8442
vn -0.0007 0.5295 0.8483
vn -0.0042 0.5667 0.8239
vn -0.8901 -0.4191 0.1792
vn -0.5992 -0.7342 0.3193
vn -0.3190 0.2369 0.9177
vn -0.2771 0.4202 0.8641
vn -0.1450 0.4650 0.8734
vn 0.0000 0.4805 0.8770
vn 0.4811 0.8766 0.0139
vn -0.0475 0.8915 0.4505
vn -0.4620 0.8645 0.1982
vn -0.4657 0.3578 -0.8094
vn 0.0000 0.2210 0.9753
vn 0.1384 0.4634 0.8753
vn 0.2639 0.4141 0.8711
vn 0.9749 -0.2047 0.0872
vn 0.0000 -0.6165 -0.7873
vn -0.0053 -0.5535 -0.8328
vn -0.0212 -0.4871 -0.8731
vn -0.1348 -0.4793 -0.8672
vn -0.2382 -0.4787 -0.8451
vn -0.9852 -0.1597 0.0628
vn 0.0015 -0.9025 0.4307
vn -0.1370 0.5555 0.8201
vn -0.9234 0.3489 -0.1603
vn -0.2334 0.5473 0.8038
vn 0.2314 0.5505 0.8021
vn 0.9059 0.3840 -0.1786
vn 0.1541 -0.3432 -0.9265
vn 0.2662 -0.3165 -0.9105
vn -0.2683 -0.3200 -0.9086
usemtl Material
s 1
f 32/1/1 35/2/2 91/3/3
f 31/4/4 36/5/5 92/6/6
f 3/7/7 15/8/8 8/9/9
f 3/10/7 16/11/10 7/12/11 90/13/12
f 30/14/13 40/15/14 73/16/15
f 112/17/16 49/18/17 9/19/17 37/20/16
f 111/21/18 89/22/19 6/23/20 88/24/21
f 27/25/22 46/26/23 62/27/24
f 110/28/25 53/29/26 10/30/27 41/31/28
f 109/32/29 50/33/30 4/34/31 74/35/32
f 108/36/33 43/37/34 24/38/35 55/39/36
f 107/40/37 56/41/38 25/42/39 76/43/40
f 3/44/7 76/45/40 34/46/41
f 106/47/42 42/48/43 23/49/44 58/50/45
f 1/51/46 84/52/47 79/53/48
f 105/54/49 59/55/50 22/56/51 52/57/52
f 12/58/53 33/59/54 61/60/55
f 104/61/56 61/60/55 27/25/22 60/62/57
f 103/63/58 62/27/24 21/64/59 51/65/60
f 102/66/16 39/67/17 20/68/61 66/69/62
f 101/70/63 67/71/64 28/72/65 78/73/66
f 1/74/46 78/75/66 84/76/47
f 100/77/67 38/78/68 19/79/69 69/80/70
f 3/81/7 34/82/41 75/83/71
f 99/84/72 70/85/73 18/86/74 48/87/75
f 11/88/76 65/89/77 72/90/78
f 98/91/79 72/90/78 30/14/13 71/92/80
f 97/93/81 73/16/15 17/94/15 47/95/81
f 3/96/7 8/9/9 16/11/10
f 3/97/7 77/98/82 5/99/83 15/8/8
f 5/99/83 87/100/84 1/101/46 15/8/8
f 15/8/8 1/102/46 8/9/9
f 8/9/9 1/103/46 16/11/10
f 16/11/10 1/104/46 80/105/85 7/12/11
f 17/94/15 63/106/86 82/107/15
f 96/108/81 82/107/15 31/4/4 81/109/87
f 95/110/88 92/6/6 12/111/53 45/112/89
f 21/64/59 54/113/90 86/114/91
f 94/115/92 86/114/91 32/1/1 85/116/93
f 93/117/94 91/3/3 11/118/76 44/119/95
f 85/116/93 32/1/1 91/3/3 93/117/94
f 24/38/35 85/116/93 93/117/94 50/33/30
f 50/33/30 93/117/94 44/119/95 4/34/31
f 51/65/60 21/64/59 86/114/91 94/115/92
f 10/30/27 51/65/60 94/115/92 43/37/34
f 43/37/34 94/115/92 85/116/93 24/38/35
f 54/113/90 2/120/96 35/121/2
f 54/113/90 35/121/2 86/114/91
f 86/114/91 35/121/2 32/1/1
f 81/109/87 31/4/4 92/6/6 95/110/88
f 20/68/61 81/109/87 95/110/88 89/22/19
f 89/22/19 95/110/88 45/112/89 6/23/20
f 47/95/81 17/94/15 82/107/15 96/108/81
f 9/19/17 47/95/81 96/108/81 39/67/17
f 39/67/17 96/108/81 81/109/87 20/68/61
f 63/106/86 2/122/96 36/123/5
f 63/106/86 36/123/5 82/107/15
f 82/107/15 36/123/5 31/4/4
f 71/92/80 30/14/13 73/16/15 97/93/81
f 19/79/69 71/92/80 97/93/81 49/18/17
f 49/18/17 97/93/81 47/95/81 9/19/17
f 44/124/95 11/88/76 72/90/78 98/91/79
f 4/125/31 44/124/95 98/91/79 38/78/68
f 38/78/68 98/91/79 71/92/80 19/79/69
f 65/89/77 2/126/96 40/127/14
f 65/89/77 40/127/14 72/90/78
f 72/90/78 40/127/14 30/14/13
f 75/83/71 29/128/97 70/85/73 99/84/72
f 3/81/7 75/83/71 99/84/72 77/129/82
f 77/129/82 99/84/72 48/87/75 5/130/83
f 34/82/41 13/131/98 64/132/99
f 34/82/41 64/132/99 75/83/71
f 75/83/71 64/132/99 29/128/97
f 74/133/32 4/125/31 38/78/68 100/77/67
f 13/131/98 74/133/32 100/77/67 64/132/99
f 64/132/99 100/77/67 69/80/70 29/128/97
f 78/75/66 28/72/65 68/134/100
f 78/75/66 68/134/100 84/76/47
f 84/76/47 68/134/100 14/135/101
f 48/87/75 18/86/74 67/71/64 101/70/63
f 5/130/83 48/87/75 101/70/63 87/136/84
f 87/136/84 101/70/63 78/73/66 1/137/46
f 37/20/16 9/19/17 39/67/17 102/66/16
f 18/86/74 37/20/16 102/66/16 67/71/64
f 67/71/64 102/66/16 66/69/62 28/72/65
f 60/62/57 27/25/22 62/27/24 103/63/58
f 23/49/44 60/62/57 103/63/58 53/29/26
f 53/29/26 103/63/58 51/65/60 10/30/27
f 45/138/89 12/58/53 61/60/55 104/61/56
f 6/139/20 45/138/89 104/61/56 42/48/43
f 42/48/43 104/61/56 60/62/57 23/49/44
f 33/59/54 2/140/96 46/141/23
f 33/59/54 46/141/23 61/60/55
f 61/60/55 46/141/23 27/25/22
f 79/53/48 26/142/102 59/55/50 105/54/49
f 1/51/46 79/53/48 105/54/49 80/143/85
f 80/143/85 105/54/49 52/57/52 7/144/11
f 84/52/47 14/145/101 83/146/103
f 84/52/47 83/146/103 79/53/48
f 79/53/48 83/146/103 26/142/102
f 88/147/21 6/139/20 42/48/43 106/47/42
f 14/145/101 88/147/21 106/47/42 83/146/103
f 83/146/103 106/47/42 58/50/45 26/142/102
f 76/45/40 25/42/39 57/148/104
f 76/45/40 57/148/104 34/46/41
f 34/46/41 57/148/104 13/149/98
f 52/57/52 22/56/51 56/41/38 107/40/37
f 7/144/11 52/57/52 107/40/37 90/150/12
f 90/150/12 107/40/37 76/43/40 3/151/7
f 41/31/28 10/30/27 43/37/34 108/36/33
f 22/56/51 41/31/28 108/36/33 56/41/38
f 56/41/38 108/36/33 55/39/36 25/42/39
f 55/39/36 24/38/35 50/33/30 109/32/29
f 25/42/39 55/39/36 109/32/29 57/148/104
f 57/148/104 109/32/29 74/35/32 13/149/98
f 58/50/45 23/49/44 53/29/26 110/28/25
f 26/142/102 58/50/45 110/28/25 59/55/50
f 59/55/50 110/28/25 41/31/28 22/56/51
f 46/26/23 2/152/96 54/153/90
f 46/26/23 54/153/90 62/27/24
f 62/27/24 54/153/90 21/64/59
f 66/69/62 20/68/61 89/22/19 111/21/18
f 28/72/65 66/69/62 111/21/18 68/134/100
f 68/134/100 111/21/18 88/24/21 14/135/101
f 69/80/70 19/79/69 49/18/17 112/17/16
f 29/128/97 69/80/70 112/17/16 70/85/73
f 70/85/73 112/17/16 37/20/16 18/86/74
f 40/15/14 2/154/96 63/155/86
f 40/15/14 63/155/86 73/16/15
f 73/16/15 63/155/86 17/94/15
f 36/5/5 2/156/96 33/157/54
f 36/5/5 33/157/54 92/6/6
f 92/6/6 33/157/54 12/111/53
f 35/2/2 2/158/96 65/159/77
f 35/2/2 65/159/77 91/3/3
f 91/3/3 65/159/77 11/118/76
